<?xml version="1.0" encoding="UTF-8" standalone="no"?>
<!DOCTYPE svg PUBLIC "-//W3C//DTD SVG 1.1//EN"
 "http://www.w3.org/Graphics/SVG/1.1/DTD/svg11.dtd">
<!-- Generated by graphviz version 2.36.0 (20140111.2315)
 -->
<!-- Title: controllers_diagram Pages: 1 -->
<svg width="742pt" height="584pt"
 viewBox="0.00 0.00 742.00 584.00" xmlns="http://www.w3.org/2000/svg" xmlns:xlink="http://www.w3.org/1999/xlink">
<g id="graph0" class="graph" transform="scale(1 1) rotate(0) translate(4 580)">
<title>controllers_diagram</title>
<polygon fill="white" stroke="none" points="-4,4 -4,-580 738,-580 738,4 -4,4"/>
<!-- _diagram_info -->
<g id="node1" class="node"><title>_diagram_info</title>
<text text-anchor="start" x="350" y="-81.6" font-family="Times,serif" font-size="13.00">Controllers diagram</text>
<text text-anchor="start" x="350" y="-67.6" font-family="Times,serif" font-size="13.00">Date: Apr 22 2015 &#45; 15:31</text>
<text text-anchor="start" x="350" y="-53.6" font-family="Times,serif" font-size="13.00">Migration version: 20150323073021</text>
<text text-anchor="start" x="350" y="-39.6" font-family="Times,serif" font-size="13.00">Generated by RailRoady 1.3.0</text>
<text text-anchor="start" x="350" y="-25.6" font-family="Times,serif" font-size="13.00">http://railroady.prestonlee.com</text>
</g>
<!-- CommentsController -->
<g id="node2" class="node"><title>CommentsController</title>
<path fill="none" stroke="black" d="M30,-252.5C30,-252.5 138,-252.5 138,-252.5 144,-252.5 150,-258.5 150,-264.5 150,-264.5 150,-363.5 150,-363.5 150,-369.5 144,-375.5 138,-375.5 138,-375.5 30,-375.5 30,-375.5 24,-375.5 18,-369.5 18,-363.5 18,-363.5 18,-264.5 18,-264.5 18,-258.5 24,-252.5 30,-252.5"/>
<text text-anchor="middle" x="84" y="-360.3" font-family="Times,serif" font-size="14.00">CommentsController</text>
<polyline fill="none" stroke="black" points="18,-352.5 150,-352.5 "/>
<text text-anchor="start" x="26" y="-337.3" font-family="Times,serif" font-size="14.00">create</text>
<text text-anchor="start" x="26" y="-322.3" font-family="Times,serif" font-size="14.00">new</text>
<polyline fill="none" stroke="black" points="18,-314.5 150,-314.5 "/>
<polyline fill="none" stroke="black" points="18,-290.5 150,-290.5 "/>
<text text-anchor="start" x="26" y="-275.3" font-family="Times,serif" font-size="14.00">_layout</text>
<text text-anchor="start" x="26" y="-260.3" font-family="Times,serif" font-size="14.00">comment_params</text>
</g>
<!-- Users::OmniauthCallbacksController -->
<g id="node3" class="node"><title>Users::OmniauthCallbacksController</title>
<path fill="none" stroke="black" d="M174,-414.5C174,-414.5 368,-414.5 368,-414.5 374,-414.5 380,-420.5 380,-426.5 380,-426.5 380,-525.5 380,-525.5 380,-531.5 374,-537.5 368,-537.5 368,-537.5 174,-537.5 174,-537.5 168,-537.5 162,-531.5 162,-525.5 162,-525.5 162,-426.5 162,-426.5 162,-420.5 168,-414.5 174,-414.5"/>
<text text-anchor="middle" x="271" y="-522.3" font-family="Times,serif" font-size="14.00">Users::OmniauthCallbacksController</text>
<polyline fill="none" stroke="black" points="162,-514.5 380,-514.5 "/>
<text text-anchor="start" x="170" y="-499.3" font-family="Times,serif" font-size="14.00">after_sign_in_path_for</text>
<text text-anchor="start" x="170" y="-484.3" font-family="Times,serif" font-size="14.00">after_sign_up_path_for</text>
<text text-anchor="start" x="170" y="-469.3" font-family="Times,serif" font-size="14.00">facebook</text>
<polyline fill="none" stroke="black" points="162,-461.5 380,-461.5 "/>
<polyline fill="none" stroke="black" points="162,-437.5 380,-437.5 "/>
<text text-anchor="start" x="170" y="-422.3" font-family="Times,serif" font-size="14.00">_layout</text>
</g>
<!-- GameController -->
<g id="node4" class="node"><title>GameController</title>
<path fill="none" stroke="black" d="M48,-0.5C48,-0.5 129,-0.5 129,-0.5 135,-0.5 141,-6.5 141,-12.5 141,-12.5 141,-82.5 141,-82.5 141,-88.5 135,-94.5 129,-94.5 129,-94.5 48,-94.5 48,-94.5 42,-94.5 36,-88.5 36,-82.5 36,-82.5 36,-12.5 36,-12.5 36,-6.5 42,-0.5 48,-0.5"/>
<text text-anchor="middle" x="88.5" y="-79.3" font-family="Times,serif" font-size="14.00">GameController</text>
<polyline fill="none" stroke="black" points="36,-71.5 141,-71.5 "/>
<polyline fill="none" stroke="black" points="36,-47.5 141,-47.5 "/>
<polyline fill="none" stroke="black" points="36,-23.5 141,-23.5 "/>
<text text-anchor="start" x="44" y="-8.3" font-family="Times,serif" font-size="14.00">_layout</text>
</g>
<!-- TasksController -->
<g id="node5" class="node"><title>TasksController</title>
<path fill="none" stroke="black" d="M192,-36.5C192,-36.5 290,-36.5 290,-36.5 296,-36.5 302,-42.5 302,-48.5 302,-48.5 302,-372.5 302,-372.5 302,-378.5 296,-384.5 290,-384.5 290,-384.5 192,-384.5 192,-384.5 186,-384.5 180,-378.5 180,-372.5 180,-372.5 180,-48.5 180,-48.5 180,-42.5 186,-36.5 192,-36.5"/>
<text text-anchor="middle" x="241" y="-369.3" font-family="Times,serif" font-size="14.00">TasksController</text>
<polyline fill="none" stroke="black" points="180,-361.5 302,-361.5 "/>
<text text-anchor="start" x="188" y="-346.3" font-family="Times,serif" font-size="14.00">clear_all_messages</text>
<text text-anchor="start" x="188" y="-331.3" font-family="Times,serif" font-size="14.00">clear_all_tasks</text>
<text text-anchor="start" x="188" y="-316.3" font-family="Times,serif" font-size="14.00">clear_all_zombies</text>
<text text-anchor="start" x="188" y="-301.3" font-family="Times,serif" font-size="14.00">create</text>
<text text-anchor="start" x="188" y="-286.3" font-family="Times,serif" font-size="14.00">destroy</text>
<text text-anchor="start" x="188" y="-271.3" font-family="Times,serif" font-size="14.00">find_user</text>
<text text-anchor="start" x="188" y="-256.3" font-family="Times,serif" font-size="14.00">index</text>
<text text-anchor="start" x="188" y="-241.3" font-family="Times,serif" font-size="14.00">new</text>
<text text-anchor="start" x="188" y="-226.3" font-family="Times,serif" font-size="14.00">playerSearch</text>
<text text-anchor="start" x="188" y="-211.3" font-family="Times,serif" font-size="14.00">reset</text>
<text text-anchor="start" x="188" y="-196.3" font-family="Times,serif" font-size="14.00">search_params</text>
<text text-anchor="start" x="188" y="-181.3" font-family="Times,serif" font-size="14.00">show</text>
<text text-anchor="start" x="188" y="-166.3" font-family="Times,serif" font-size="14.00">sort_column</text>
<text text-anchor="start" x="188" y="-151.3" font-family="Times,serif" font-size="14.00">sort_direction</text>
<text text-anchor="start" x="188" y="-136.3" font-family="Times,serif" font-size="14.00">update</text>
<polyline fill="none" stroke="black" points="180,-128.5 302,-128.5 "/>
<polyline fill="none" stroke="black" points="180,-104.5 302,-104.5 "/>
<text text-anchor="start" x="188" y="-89.3" font-family="Times,serif" font-size="14.00">_layout</text>
<text text-anchor="start" x="188" y="-74.3" font-family="Times,serif" font-size="14.00">all_tasks</text>
<text text-anchor="start" x="188" y="-59.3" font-family="Times,serif" font-size="14.00">set_tasks</text>
<text text-anchor="start" x="188" y="-44.3" font-family="Times,serif" font-size="14.00">task_params</text>
</g>
<!-- ApplicationController -->
<g id="node6" class="node"><title>ApplicationController</title>
<path fill="none" stroke="black" d="M552,-126.5C552,-126.5 722,-126.5 722,-126.5 728,-126.5 734,-132.5 734,-138.5 734,-138.5 734,-206.5 734,-206.5 734,-212.5 728,-218.5 722,-218.5 722,-218.5 552,-218.5 552,-218.5 546,-218.5 540,-212.5 540,-206.5 540,-206.5 540,-138.5 540,-138.5 540,-132.5 546,-126.5 552,-126.5"/>
<text text-anchor="middle" x="637" y="-203.3" font-family="Times,serif" font-size="14.00">ApplicationController</text>
<polyline fill="none" stroke="black" points="540,-195.5 734,-195.5 "/>
<text text-anchor="start" x="548" y="-180.3" font-family="Times,serif" font-size="14.00">configure_permitted_parameters</text>
<polyline fill="none" stroke="black" points="540,-172.5 734,-172.5 "/>
<text text-anchor="start" x="548" y="-157.3" font-family="Times,serif" font-size="14.00">render404</text>
<polyline fill="none" stroke="black" points="540,-149.5 734,-149.5 "/>
<text text-anchor="start" x="548" y="-134.3" font-family="Times,serif" font-size="14.00">_layout</text>
</g>
<!-- PagesController -->
<g id="node7" class="node"><title>PagesController</title>
<path fill="none" stroke="black" d="M30,-450.5C30,-450.5 110,-450.5 110,-450.5 116,-450.5 122,-456.5 122,-462.5 122,-462.5 122,-531.5 122,-531.5 122,-537.5 116,-543.5 110,-543.5 110,-543.5 30,-543.5 30,-543.5 24,-543.5 18,-537.5 18,-531.5 18,-531.5 18,-462.5 18,-462.5 18,-456.5 24,-450.5 30,-450.5"/>
<text text-anchor="middle" x="70" y="-528.3" font-family="Times,serif" font-size="14.00">PagesController</text>
<polyline fill="none" stroke="black" points="18,-520.5 122,-520.5 "/>
<text text-anchor="start" x="26" y="-505.3" font-family="Times,serif" font-size="14.00">index</text>
<polyline fill="none" stroke="black" points="18,-497.5 122,-497.5 "/>
<polyline fill="none" stroke="black" points="18,-473.5 122,-473.5 "/>
<text text-anchor="start" x="26" y="-458.3" font-family="Times,serif" font-size="14.00">_layout</text>
</g>
<!-- Admin::UsersController -->
<g id="node8" class="node"><title>Admin::UsersController</title>
<path fill="none" stroke="black" d="M426,-378.5C426,-378.5 551,-378.5 551,-378.5 557,-378.5 563,-384.5 563,-390.5 563,-390.5 563,-563.5 563,-563.5 563,-569.5 557,-575.5 551,-575.5 551,-575.5 426,-575.5 426,-575.5 420,-575.5 414,-569.5 414,-563.5 414,-563.5 414,-390.5 414,-390.5 414,-384.5 420,-378.5 426,-378.5"/>
<text text-anchor="middle" x="488.5" y="-560.3" font-family="Times,serif" font-size="14.00">Admin::UsersController</text>
<polyline fill="none" stroke="black" points="414,-552.5 563,-552.5 "/>
<text text-anchor="start" x="422" y="-537.3" font-family="Times,serif" font-size="14.00">destroy</text>
<text text-anchor="start" x="422" y="-522.3" font-family="Times,serif" font-size="14.00">edit</text>
<text text-anchor="start" x="422" y="-507.3" font-family="Times,serif" font-size="14.00">index</text>
<text text-anchor="start" x="422" y="-492.3" font-family="Times,serif" font-size="14.00">show</text>
<text text-anchor="start" x="422" y="-477.3" font-family="Times,serif" font-size="14.00">update</text>
<polyline fill="none" stroke="black" points="414,-469.5 563,-469.5 "/>
<text text-anchor="start" x="422" y="-454.3" font-family="Times,serif" font-size="14.00">find_user</text>
<polyline fill="none" stroke="black" points="414,-446.5 563,-446.5 "/>
<text text-anchor="start" x="422" y="-431.3" font-family="Times,serif" font-size="14.00">_layout</text>
<text text-anchor="start" x="422" y="-416.3" font-family="Times,serif" font-size="14.00">search_params</text>
<text text-anchor="start" x="422" y="-401.3" font-family="Times,serif" font-size="14.00">sort_column</text>
<text text-anchor="start" x="422" y="-386.3" font-family="Times,serif" font-size="14.00">sort_direction</text>
</g>
<!-- Admin::BaseController -->
<g id="node9" class="node"><title>Admin::BaseController</title>
<path fill="none" stroke="black" d="M12,-126.5C12,-126.5 132,-126.5 132,-126.5 138,-126.5 144,-132.5 144,-138.5 144,-138.5 144,-206.5 144,-206.5 144,-212.5 138,-218.5 132,-218.5 132,-218.5 12,-218.5 12,-218.5 6,-218.5 0,-212.5 0,-206.5 0,-206.5 0,-138.5 0,-138.5 0,-132.5 6,-126.5 12,-126.5"/>
<text text-anchor="middle" x="72" y="-203.3" font-family="Times,serif" font-size="14.00">Admin::BaseController</text>
<polyline fill="none" stroke="black" points="0,-195.5 144,-195.5 "/>
<text text-anchor="start" x="8" y="-180.3" font-family="Times,serif" font-size="14.00">index</text>
<polyline fill="none" stroke="black" points="0,-172.5 144,-172.5 "/>
<text text-anchor="start" x="8" y="-157.3" font-family="Times,serif" font-size="14.00">require_admin</text>
<polyline fill="none" stroke="black" points="0,-149.5 144,-149.5 "/>
<text text-anchor="start" x="8" y="-134.3" font-family="Times,serif" font-size="14.00">_layout</text>
</g>
<!-- ZombieGroupsController -->
<g id="node10" class="node"><title>ZombieGroupsController</title>
<path fill="none" stroke="black" d="M354,-126.5C354,-126.5 485,-126.5 485,-126.5 491,-126.5 497,-132.5 497,-138.5 497,-138.5 497,-327.5 497,-327.5 497,-333.5 491,-339.5 485,-339.5 485,-339.5 354,-339.5 354,-339.5 348,-339.5 342,-333.5 342,-327.5 342,-327.5 342,-138.5 342,-138.5 342,-132.5 348,-126.5 354,-126.5"/>
<text text-anchor="middle" x="419.5" y="-324.3" font-family="Times,serif" font-size="14.00">ZombieGroupsController</text>
<polyline fill="none" stroke="black" points="342,-316.5 497,-316.5 "/>
<text text-anchor="start" x="350" y="-301.3" font-family="Times,serif" font-size="14.00">create</text>
<text text-anchor="start" x="350" y="-286.3" font-family="Times,serif" font-size="14.00">destroy</text>
<text text-anchor="start" x="350" y="-271.3" font-family="Times,serif" font-size="14.00">edit</text>
<text text-anchor="start" x="350" y="-256.3" font-family="Times,serif" font-size="14.00">index</text>
<text text-anchor="start" x="350" y="-241.3" font-family="Times,serif" font-size="14.00">new</text>
<text text-anchor="start" x="350" y="-226.3" font-family="Times,serif" font-size="14.00">show</text>
<text text-anchor="start" x="350" y="-211.3" font-family="Times,serif" font-size="14.00">update</text>
<polyline fill="none" stroke="black" points="342,-203.5 497,-203.5 "/>
<polyline fill="none" stroke="black" points="342,-179.5 497,-179.5 "/>
<text text-anchor="start" x="350" y="-164.3" font-family="Times,serif" font-size="14.00">_layout</text>
<text text-anchor="start" x="350" y="-149.3" font-family="Times,serif" font-size="14.00">set_zombie_group</text>
<text text-anchor="start" x="350" y="-134.3" font-family="Times,serif" font-size="14.00">zombie_group_params</text>
</g>
</g>
</svg>
