<?xml version="1.0" encoding="UTF-8" standalone="no"?>
<!DOCTYPE svg PUBLIC "-//W3C//DTD SVG 1.1//EN"
 "http://www.w3.org/Graphics/SVG/1.1/DTD/svg11.dtd">
<!-- Generated by graphviz version 2.36.0 (20140111.2315)
 -->
<!-- Title: models_diagram Pages: 1 -->
<svg width="506pt" height="230pt"
 viewBox="0.00 0.00 506.00 230.00" xmlns="http://www.w3.org/2000/svg" xmlns:xlink="http://www.w3.org/1999/xlink">
<g id="graph0" class="graph" transform="scale(1 1) rotate(0) translate(4 226)">
<title>models_diagram</title>
<polygon fill="white" stroke="none" points="-4,4 -4,-226 502,-226 502,4 -4,4"/>
<!-- _diagram_info -->
<g id="node1" class="node"><title>_diagram_info</title>
<text text-anchor="start" x="7" y="-207.6" font-family="Times,serif" font-size="13.00">Models diagram</text>
<text text-anchor="start" x="7" y="-193.6" font-family="Times,serif" font-size="13.00">Date: Apr 22 2015 &#45; 15:31</text>
<text text-anchor="start" x="7" y="-179.6" font-family="Times,serif" font-size="13.00">Migration version: 20150323073021</text>
<text text-anchor="start" x="7" y="-165.6" font-family="Times,serif" font-size="13.00">Generated by RailRoady 1.3.0</text>
<text text-anchor="start" x="7" y="-151.6" font-family="Times,serif" font-size="13.00">http://railroady.prestonlee.com</text>
</g>
<!-- Comment -->
<g id="node2" class="node"><title>Comment</title>
<ellipse fill="none" stroke="black" cx="258" cy="-18" rx="46.2191" ry="18"/>
<text text-anchor="middle" x="258" y="-14.3" font-family="Times,serif" font-size="14.00">Comment</text>
</g>
<!-- ZombieGroup -->
<g id="node3" class="node"><title>ZombieGroup</title>
<ellipse fill="none" stroke="black" cx="364" cy="-183" rx="61.1419" ry="18"/>
<text text-anchor="middle" x="364" y="-179.3" font-family="Times,serif" font-size="14.00">ZombieGroup</text>
</g>
<!-- Task -->
<g id="node4" class="node"><title>Task</title>
<ellipse fill="none" stroke="black" cx="471" cy="-183" rx="27.4223" ry="18"/>
<text text-anchor="middle" x="471" y="-179.3" font-family="Times,serif" font-size="14.00">Task</text>
</g>
<!-- Role -->
<g id="node5" class="node"><title>Role</title>
<ellipse fill="none" stroke="black" cx="258" cy="-183" rx="26.949" ry="18"/>
<text text-anchor="middle" x="258" y="-179.3" font-family="Times,serif" font-size="14.00">Role</text>
</g>
<!-- User -->
<g id="node6" class="node"><title>User</title>
<ellipse fill="none" stroke="black" cx="258" cy="-90" rx="26.949" ry="18"/>
<text text-anchor="middle" x="258" y="-86.3" font-family="Times,serif" font-size="14.00">User</text>
</g>
<!-- Role&#45;&gt;User -->
<g id="edge1" class="edge"><title>Role&#45;&gt;User</title>
<path fill="none" stroke="#868d92" d="M258,-154.549C258,-143.083 258,-129.792 258,-118.339"/>
<polygon fill="#868d92" stroke="#868d92" points="258,-154.884 253.5,-164.884 258,-159.884 258,-164.884 258,-164.884 258,-164.884 258,-159.884 262.5,-164.884 258,-154.884 258,-154.884"/>
<polygon fill="#868d92" stroke="#868d92" points="258,-118.04 262.5,-108.04 258,-113.04 258,-108.04 258,-108.04 258,-108.04 258,-113.04 253.5,-108.04 258,-118.04 258,-118.04"/>
</g>
<!-- User&#45;&gt;Comment -->
<g id="edge2" class="edge"><title>User&#45;&gt;Comment</title>
<path fill="none" stroke="#2c1395" d="M258,-63.6398C258,-58.0629 258,-52.1319 258,-46.4761"/>
<ellipse fill="none" stroke="#2c1395" cx="258" cy="-67.6966" rx="4" ry="4"/>
<polygon fill="#2c1395" stroke="#2c1395" points="258,-46.1043 262.5,-36.1043 258,-41.1043 258,-36.1043 258,-36.1043 258,-36.1043 258,-41.1043 253.5,-36.1044 258,-46.1043 258,-46.1043"/>
</g>
</g>
</svg>
