<?xml version="1.0" encoding="UTF-8" standalone="no"?>
<!DOCTYPE svg PUBLIC "-//W3C//DTD SVG 1.1//EN"
 "http://www.w3.org/Graphics/SVG/1.1/DTD/svg11.dtd">
<!-- Generated by graphviz version 2.36.0 (20140111.2315)
 -->
<!-- Title: models_diagram Pages: 1 -->
<svg width="668pt" height="584pt"
 viewBox="0.00 0.00 668.00 584.00" xmlns="http://www.w3.org/2000/svg" xmlns:xlink="http://www.w3.org/1999/xlink">
<g id="graph0" class="graph" transform="scale(1 1) rotate(0) translate(4 580)">
<title>models_diagram</title>
<polygon fill="white" stroke="none" points="-4,4 -4,-580 664,-580 664,4 -4,4"/>
<!-- _diagram_info -->
<g id="node1" class="node"><title>_diagram_info</title>
<text text-anchor="start" x="7" y="-531.6" font-family="Times,serif" font-size="13.00">Models diagram</text>
<text text-anchor="start" x="7" y="-517.6" font-family="Times,serif" font-size="13.00">Date: Apr 22 2015 &#45; 15:31</text>
<text text-anchor="start" x="7" y="-503.6" font-family="Times,serif" font-size="13.00">Migration version: 20150323073021</text>
<text text-anchor="start" x="7" y="-489.6" font-family="Times,serif" font-size="13.00">Generated by RailRoady 1.3.0</text>
<text text-anchor="start" x="7" y="-475.6" font-family="Times,serif" font-size="13.00">http://railroady.prestonlee.com</text>
</g>
<!-- Comment -->
<g id="node2" class="node"><title>Comment</title>
<path fill="none" stroke="black" d="M243.5,-1C243.5,-1 350.5,-1 350.5,-1 356.5,-1 362.5,-7 362.5,-13 362.5,-13 362.5,-95 362.5,-95 362.5,-101 356.5,-107 350.5,-107 350.5,-107 243.5,-107 243.5,-107 237.5,-107 231.5,-101 231.5,-95 231.5,-95 231.5,-13 231.5,-13 231.5,-7 237.5,-1 243.5,-1"/>
<text text-anchor="middle" x="297" y="-91.8" font-family="Times,serif" font-size="14.00">Comment</text>
<polyline fill="none" stroke="black" points="231.5,-84 362.5,-84 "/>
<text text-anchor="start" x="239.5" y="-68.8" font-family="Times,serif" font-size="14.00">id :integer</text>
<text text-anchor="start" x="239.5" y="-53.8" font-family="Times,serif" font-size="14.00">body :text</text>
<text text-anchor="start" x="239.5" y="-38.8" font-family="Times,serif" font-size="14.00">user_id :integer</text>
<text text-anchor="start" x="239.5" y="-23.8" font-family="Times,serif" font-size="14.00">created_at :datetime</text>
<text text-anchor="start" x="239.5" y="-8.8" font-family="Times,serif" font-size="14.00">updated_at :datetime</text>
</g>
<!-- ZombieGroup -->
<g id="node3" class="node"><title>ZombieGroup</title>
<path fill="none" stroke="black" d="M392.5,-439C392.5,-439 499.5,-439 499.5,-439 505.5,-439 511.5,-445 511.5,-451 511.5,-451 511.5,-563 511.5,-563 511.5,-569 505.5,-575 499.5,-575 499.5,-575 392.5,-575 392.5,-575 386.5,-575 380.5,-569 380.5,-563 380.5,-563 380.5,-451 380.5,-451 380.5,-445 386.5,-439 392.5,-439"/>
<text text-anchor="middle" x="446" y="-559.8" font-family="Times,serif" font-size="14.00">ZombieGroup</text>
<polyline fill="none" stroke="black" points="380.5,-552 511.5,-552 "/>
<text text-anchor="start" x="388.5" y="-536.8" font-family="Times,serif" font-size="14.00">id :integer</text>
<text text-anchor="start" x="388.5" y="-521.8" font-family="Times,serif" font-size="14.00">latitude :float</text>
<text text-anchor="start" x="388.5" y="-506.8" font-family="Times,serif" font-size="14.00">longitude :float</text>
<text text-anchor="start" x="388.5" y="-491.8" font-family="Times,serif" font-size="14.00">address :string</text>
<text text-anchor="start" x="388.5" y="-476.8" font-family="Times,serif" font-size="14.00">title :string</text>
<text text-anchor="start" x="388.5" y="-461.8" font-family="Times,serif" font-size="14.00">created_at :datetime</text>
<text text-anchor="start" x="388.5" y="-446.8" font-family="Times,serif" font-size="14.00">updated_at :datetime</text>
</g>
<!-- Task -->
<g id="node4" class="node"><title>Task</title>
<path fill="none" stroke="black" d="M541.5,-446.5C541.5,-446.5 648.5,-446.5 648.5,-446.5 654.5,-446.5 660.5,-452.5 660.5,-458.5 660.5,-458.5 660.5,-555.5 660.5,-555.5 660.5,-561.5 654.5,-567.5 648.5,-567.5 648.5,-567.5 541.5,-567.5 541.5,-567.5 535.5,-567.5 529.5,-561.5 529.5,-555.5 529.5,-555.5 529.5,-458.5 529.5,-458.5 529.5,-452.5 535.5,-446.5 541.5,-446.5"/>
<text text-anchor="middle" x="595" y="-552.3" font-family="Times,serif" font-size="14.00">Task</text>
<polyline fill="none" stroke="black" points="529.5,-544.5 660.5,-544.5 "/>
<text text-anchor="start" x="537.5" y="-529.3" font-family="Times,serif" font-size="14.00">id :integer</text>
<text text-anchor="start" x="537.5" y="-514.3" font-family="Times,serif" font-size="14.00">created_at :datetime</text>
<text text-anchor="start" x="537.5" y="-499.3" font-family="Times,serif" font-size="14.00">updated_at :datetime</text>
<text text-anchor="start" x="537.5" y="-484.3" font-family="Times,serif" font-size="14.00">description :string</text>
<text text-anchor="start" x="537.5" y="-469.3" font-family="Times,serif" font-size="14.00">deadline :datetime</text>
<text text-anchor="start" x="537.5" y="-454.3" font-family="Times,serif" font-size="14.00">tagger :string</text>
</g>
<!-- Role -->
<g id="node5" class="node"><title>Role</title>
<path fill="none" stroke="black" d="M243.5,-461.5C243.5,-461.5 350.5,-461.5 350.5,-461.5 356.5,-461.5 362.5,-467.5 362.5,-473.5 362.5,-473.5 362.5,-540.5 362.5,-540.5 362.5,-546.5 356.5,-552.5 350.5,-552.5 350.5,-552.5 243.5,-552.5 243.5,-552.5 237.5,-552.5 231.5,-546.5 231.5,-540.5 231.5,-540.5 231.5,-473.5 231.5,-473.5 231.5,-467.5 237.5,-461.5 243.5,-461.5"/>
<text text-anchor="middle" x="297" y="-537.3" font-family="Times,serif" font-size="14.00">Role</text>
<polyline fill="none" stroke="black" points="231.5,-529.5 362.5,-529.5 "/>
<text text-anchor="start" x="239.5" y="-514.3" font-family="Times,serif" font-size="14.00">id :integer</text>
<text text-anchor="start" x="239.5" y="-499.3" font-family="Times,serif" font-size="14.00">name :string</text>
<text text-anchor="start" x="239.5" y="-484.3" font-family="Times,serif" font-size="14.00">created_at :datetime</text>
<text text-anchor="start" x="239.5" y="-469.3" font-family="Times,serif" font-size="14.00">updated_at :datetime</text>
</g>
<!-- User -->
<g id="node6" class="node"><title>User</title>
<path fill="none" stroke="black" d="M209,-145C209,-145 385,-145 385,-145 391,-145 397,-151 397,-157 397,-157 397,-389 397,-389 397,-395 391,-401 385,-401 385,-401 209,-401 209,-401 203,-401 197,-395 197,-389 197,-389 197,-157 197,-157 197,-151 203,-145 209,-145"/>
<text text-anchor="middle" x="297" y="-385.8" font-family="Times,serif" font-size="14.00">User</text>
<polyline fill="none" stroke="black" points="197,-378 397,-378 "/>
<text text-anchor="start" x="205" y="-362.8" font-family="Times,serif" font-size="14.00">id :integer</text>
<text text-anchor="start" x="205" y="-347.8" font-family="Times,serif" font-size="14.00">name :string</text>
<text text-anchor="start" x="205" y="-332.8" font-family="Times,serif" font-size="14.00">email :string</text>
<text text-anchor="start" x="205" y="-317.8" font-family="Times,serif" font-size="14.00">encrypted_password :string</text>
<text text-anchor="start" x="205" y="-302.8" font-family="Times,serif" font-size="14.00">avatar :string</text>
<text text-anchor="start" x="205" y="-287.8" font-family="Times,serif" font-size="14.00">reset_password_token :string</text>
<text text-anchor="start" x="205" y="-272.8" font-family="Times,serif" font-size="14.00">reset_password_sent_at :datetime</text>
<text text-anchor="start" x="205" y="-257.8" font-family="Times,serif" font-size="14.00">remember_created_at :datetime</text>
<text text-anchor="start" x="205" y="-242.8" font-family="Times,serif" font-size="14.00">sign_in_count :integer</text>
<text text-anchor="start" x="205" y="-227.8" font-family="Times,serif" font-size="14.00">current_sign_in_at :datetime</text>
<text text-anchor="start" x="205" y="-212.8" font-family="Times,serif" font-size="14.00">last_sign_in_at :datetime</text>
<text text-anchor="start" x="205" y="-197.8" font-family="Times,serif" font-size="14.00">current_sign_in_ip :string</text>
<text text-anchor="start" x="205" y="-182.8" font-family="Times,serif" font-size="14.00">last_sign_in_ip :string</text>
<text text-anchor="start" x="205" y="-167.8" font-family="Times,serif" font-size="14.00">created_at :datetime</text>
<text text-anchor="start" x="205" y="-152.8" font-family="Times,serif" font-size="14.00">updated_at :datetime</text>
</g>
<!-- Role&#45;&gt;User -->
<g id="edge1" class="edge"><title>Role&#45;&gt;User</title>
<path fill="none" stroke="#2eb9d1" d="M297,-451.064C297,-438.816 297,-425.298 297,-411.353"/>
<polygon fill="#2eb9d1" stroke="#2eb9d1" points="297,-451.268 292.5,-461.268 297,-456.268 297,-461.268 297,-461.268 297,-461.268 297,-456.268 301.5,-461.268 297,-451.268 297,-451.268"/>
<polygon fill="#2eb9d1" stroke="#2eb9d1" points="297,-411.136 301.5,-401.136 297,-406.136 297,-401.136 297,-401.136 297,-401.136 297,-406.136 292.5,-401.136 297,-411.136 297,-411.136"/>
</g>
<!-- User&#45;&gt;Comment -->
<g id="edge2" class="edge"><title>User&#45;&gt;Comment</title>
<path fill="none" stroke="#4a9c30" d="M297,-136.574C297,-130.033 297,-123.631 297,-117.471"/>
<ellipse fill="none" stroke="#4a9c30" cx="297" cy="-140.829" rx="4" ry="4"/>
<polygon fill="#4a9c30" stroke="#4a9c30" points="297,-117.353 301.5,-107.353 297,-112.353 297,-107.353 297,-107.353 297,-107.353 297,-112.353 292.5,-107.354 297,-117.353 297,-117.353"/>
</g>
</g>
</svg>
